<svg width="38" height="38" viewBox="0 0 38 38" fill="none" xmlns="http://www.w3.org/2000/svg">
<path fill-rule="evenodd" clip-rule="evenodd" d="M17.3203 29H32.0016V27H19.4869L18.2442 28.2426C17.9564 28.5304 17.6466 28.7829 17.3203 29ZM24.4869 22H32.0016V20H26.4869L24.4869 22Z" fill="black"/>
<path d="M13.2929 24.7071C13.6834 25.0976 14.3166 25.0976 14.7071 24.7071L21.0711 18.3431C21.4616 17.9526 21.4616 17.3195 21.0711 16.9289C20.6805 16.5384 20.0474 16.5384 19.6569 16.9289L14 22.5858L8.34315 16.9289C7.95262 16.5384 7.31946 16.5384 6.92893 16.9289C6.53841 17.3195 6.53841 17.9526 6.92893 18.3431L13.2929 24.7071ZM13 9L13 24L15 24L15 9L13 9Z" fill="black"/>
</svg>
