<svg width="224" height="69" viewBox="0 0 224 69" fill="none" xmlns="http://www.w3.org/2000/svg">
<path d="M71.008 39V16.6H80.8C83.232 16.6 85.3653 17.0693 87.2 18.008C89.0347 18.9467 90.464 20.248 91.488 21.912C92.512 23.576 93.024 25.5387 93.024 27.8C93.024 30.04 92.512 32.0027 91.488 33.688C90.464 35.352 89.0347 36.6533 87.2 37.592C85.3653 38.5307 83.232 39 80.8 39H71.008ZM75.168 35.48H80.608C82.2933 35.48 83.744 35.16 84.96 34.52C86.1973 33.88 87.1467 32.984 87.808 31.832C88.4907 30.68 88.832 29.336 88.832 27.8C88.832 26.2427 88.4907 24.8987 87.808 23.768C87.1467 22.616 86.1973 21.72 84.96 21.08C83.744 20.44 82.2933 20.12 80.608 20.12H75.168V35.48ZM100.966 25.912H112.102V29.336H100.966V25.912ZM101.286 35.512H113.926V39H97.1255V16.6H113.478V20.088H101.286V35.512ZM118.243 39V16.6H121.667L135.715 33.848H134.019V16.6H138.147V39H134.723L120.675 21.752H122.371V39H118.243ZM143.829 39V16.6H153.621C156.053 16.6 158.187 17.0693 160.021 18.008C161.856 18.9467 163.285 20.248 164.309 21.912C165.333 23.576 165.845 25.5387 165.845 27.8C165.845 30.04 165.333 32.0027 164.309 33.688C163.285 35.352 161.856 36.6533 160.021 37.592C158.187 38.5307 156.053 39 153.621 39H143.829ZM147.989 35.48H153.429C155.115 35.48 156.565 35.16 157.781 34.52C159.019 33.88 159.968 32.984 160.629 31.832C161.312 30.68 161.653 29.336 161.653 27.8C161.653 26.2427 161.312 24.8987 160.629 23.768C159.968 22.616 159.019 21.72 157.781 21.08C156.565 20.44 155.115 20.12 153.429 20.12H147.989V35.48ZM169.947 39V16.6H179.163C181.147 16.6 182.843 16.92 184.251 17.56C185.68 18.2 186.779 19.1173 187.547 20.312C188.315 21.5067 188.699 22.9253 188.699 24.568C188.699 26.2107 188.315 27.6293 187.547 28.824C186.779 29.9973 185.68 30.904 184.251 31.544C182.843 32.1627 181.147 32.472 179.163 32.472H172.251L174.107 30.584V39H169.947ZM184.603 39L178.939 30.872H183.387L189.083 39H184.603ZM174.107 31.032L172.251 29.048H178.971C180.805 29.048 182.181 28.6533 183.099 27.864C184.037 27.0747 184.507 25.976 184.507 24.568C184.507 23.1387 184.037 22.04 183.099 21.272C182.181 20.504 180.805 20.12 178.971 20.12H172.251L174.107 18.072V31.032ZM193.033 39V16.6H197.193V39H193.033ZM206.644 33.72L206.42 28.792L218.164 16.6H222.836L213.076 26.968L210.772 29.496L206.644 33.72ZM202.932 39V16.6H207.092V39H202.932ZM218.548 39L209.972 28.792L212.724 25.752L223.412 39H218.548Z" fill="white"/>
<path opacity="0.6" d="M75.2 63L72.064 54.456H73.952L76.64 61.992H75.744L78.56 54.456H80.24L82.976 61.992H82.096L84.864 54.456H86.64L83.488 63H81.568L79.072 56.328H79.664L77.12 63H75.2ZM91.4608 63.112C90.5861 63.112 89.8074 62.9253 89.1248 62.552C88.4421 62.168 87.9034 61.6453 87.5088 60.984C87.1141 60.3227 86.9168 59.5707 86.9168 58.728C86.9168 57.8747 87.1141 57.1227 87.5088 56.472C87.9034 55.8107 88.4421 55.2933 89.1248 54.92C89.8074 54.5467 90.5861 54.36 91.4608 54.36C92.3461 54.36 93.1301 54.5467 93.8128 54.92C94.5061 55.2933 95.0448 55.8053 95.4288 56.456C95.8234 57.1067 96.0208 57.864 96.0208 58.728C96.0208 59.5707 95.8234 60.3227 95.4288 60.984C95.0448 61.6453 94.5061 62.168 93.8128 62.552C93.1301 62.9253 92.3461 63.112 91.4608 63.112ZM91.4608 61.4C91.9514 61.4 92.3888 61.2933 92.7728 61.08C93.1568 60.8667 93.4554 60.5573 93.6688 60.152C93.8928 59.7467 94.0048 59.272 94.0048 58.728C94.0048 58.1733 93.8928 57.6987 93.6688 57.304C93.4554 56.8987 93.1568 56.5893 92.7728 56.376C92.3888 56.1627 91.9568 56.056 91.4768 56.056C90.9861 56.056 90.5488 56.1627 90.1648 56.376C89.7914 56.5893 89.4928 56.8987 89.2688 57.304C89.0448 57.6987 88.9328 58.1733 88.9328 58.728C88.9328 59.272 89.0448 59.7467 89.2688 60.152C89.4928 60.5573 89.7914 60.8667 90.1648 61.08C90.5488 61.2933 90.9808 61.4 91.4608 61.4ZM101.613 63.112C100.739 63.112 99.9599 62.9253 99.2773 62.552C98.5946 62.168 98.0559 61.6453 97.6613 60.984C97.2666 60.3227 97.0693 59.5707 97.0693 58.728C97.0693 57.8747 97.2666 57.1227 97.6613 56.472C98.0559 55.8107 98.5946 55.2933 99.2773 54.92C99.9599 54.5467 100.739 54.36 101.613 54.36C102.499 54.36 103.283 54.5467 103.965 54.92C104.659 55.2933 105.197 55.8053 105.581 56.456C105.976 57.1067 106.173 57.864 106.173 58.728C106.173 59.5707 105.976 60.3227 105.581 60.984C105.197 61.6453 104.659 62.168 103.965 62.552C103.283 62.9253 102.499 63.112 101.613 63.112ZM101.613 61.4C102.104 61.4 102.541 61.2933 102.925 61.08C103.309 60.8667 103.608 60.5573 103.821 60.152C104.045 59.7467 104.157 59.272 104.157 58.728C104.157 58.1733 104.045 57.6987 103.821 57.304C103.608 56.8987 103.309 56.5893 102.925 56.376C102.541 56.1627 102.109 56.056 101.629 56.056C101.139 56.056 100.701 56.1627 100.317 56.376C99.9439 56.5893 99.6453 56.8987 99.4213 57.304C99.1973 57.6987 99.0853 58.1733 99.0853 58.728C99.0853 59.272 99.1973 59.7467 99.4213 60.152C99.6453 60.5573 99.9439 60.8667 100.317 61.08C100.701 61.2933 101.133 61.4 101.613 61.4ZM111.542 63.112C110.72 63.112 109.979 62.9307 109.318 62.568C108.667 62.1947 108.155 61.6827 107.782 61.032C107.408 60.3813 107.222 59.6133 107.222 58.728C107.222 57.8427 107.408 57.0747 107.782 56.424C108.155 55.7733 108.667 55.2667 109.318 54.904C109.979 54.5413 110.72 54.36 111.542 54.36C112.256 54.36 112.896 54.52 113.462 54.84C114.027 55.1493 114.475 55.624 114.806 56.264C115.136 56.904 115.302 57.7253 115.302 58.728C115.302 59.72 115.142 60.5413 114.822 61.192C114.502 61.832 114.059 62.312 113.494 62.632C112.928 62.952 112.278 63.112 111.542 63.112ZM111.782 61.4C112.262 61.4 112.688 61.2933 113.062 61.08C113.446 60.8667 113.75 60.5573 113.974 60.152C114.208 59.7467 114.326 59.272 114.326 58.728C114.326 58.1733 114.208 57.6987 113.974 57.304C113.75 56.8987 113.446 56.5893 113.062 56.376C112.688 56.1627 112.262 56.056 111.782 56.056C111.302 56.056 110.87 56.1627 110.486 56.376C110.112 56.5893 109.808 56.8987 109.574 57.304C109.35 57.6987 109.238 58.1733 109.238 58.728C109.238 59.272 109.35 59.7467 109.574 60.152C109.808 60.5573 110.112 60.8667 110.486 61.08C110.87 61.2933 111.302 61.4 111.782 61.4ZM114.374 63V60.984L114.454 58.712L114.294 56.44V51.128H116.278V63H114.374ZM120.638 63L117.502 54.456H119.39L122.078 61.992H121.182L123.998 54.456H125.678L128.414 61.992H127.534L130.302 54.456H132.078L128.926 63H127.006L124.51 56.328H125.102L122.558 63H120.638ZM136.899 63.112C136.024 63.112 135.246 62.9253 134.563 62.552C133.88 62.168 133.342 61.6453 132.947 60.984C132.552 60.3227 132.355 59.5707 132.355 58.728C132.355 57.8747 132.552 57.1227 132.947 56.472C133.342 55.8107 133.88 55.2933 134.563 54.92C135.246 54.5467 136.024 54.36 136.899 54.36C137.784 54.36 138.568 54.5467 139.251 54.92C139.944 55.2933 140.483 55.8053 140.867 56.456C141.262 57.1067 141.459 57.864 141.459 58.728C141.459 59.5707 141.262 60.3227 140.867 60.984C140.483 61.6453 139.944 62.168 139.251 62.552C138.568 62.9253 137.784 63.112 136.899 63.112ZM136.899 61.4C137.39 61.4 137.827 61.2933 138.211 61.08C138.595 60.8667 138.894 60.5573 139.107 60.152C139.331 59.7467 139.443 59.272 139.443 58.728C139.443 58.1733 139.331 57.6987 139.107 57.304C138.894 56.8987 138.595 56.5893 138.211 56.376C137.827 56.1627 137.395 56.056 136.915 56.056C136.424 56.056 135.987 56.1627 135.603 56.376C135.23 56.5893 134.931 56.8987 134.707 57.304C134.483 57.6987 134.371 58.1733 134.371 58.728C134.371 59.272 134.483 59.7467 134.707 60.152C134.931 60.5573 135.23 60.8667 135.603 61.08C135.987 61.2933 136.419 61.4 136.899 61.4ZM143.211 63V54.456H145.115V56.808L144.891 56.12C145.147 55.544 145.547 55.1067 146.091 54.808C146.646 54.5093 147.334 54.36 148.155 54.36V56.264C148.07 56.2427 147.99 56.232 147.915 56.232C147.841 56.2213 147.766 56.216 147.691 56.216C146.934 56.216 146.331 56.44 145.883 56.888C145.435 57.3253 145.211 57.9813 145.211 58.856V63H143.211ZM151.324 61.096L151.372 58.584L155.836 54.456H158.236L154.444 58.264L153.388 59.144L151.324 61.096ZM149.692 63V51.128H151.692V63H149.692ZM156.14 63L153.02 59.144L154.284 57.544L158.572 63H156.14Z" fill="white"/>
<path d="M23 37.4998L1 23.9998V14.9998L23 28.4998L45 14.9998V23.9998L23 37.4998Z" fill="#8FEBF1"/>
<path d="M23 2L39 11.6429L39 12C39 12 31.2963 17 23 22L7 12V11.6429L23 2Z" fill="#8FEBF1"/>
<path d="M23 52.4998L1 38.9998V29.9998L23 43.4998L45 29.9998V38.9998L23 52.4998Z" fill="#8FEBF1"/>
<path d="M22.9987 67.5L20.5 66V57L22.9987 58.5L25.4987 57V66L22.9987 67.5Z" fill="#8FEBF1"/>
<path d="M23 37.4998L1 23.9998V14.9998L23 28.4998M23 37.4998V28.4998M23 37.4998L45 23.9998V14.9998L23 28.4998M23 2L39 11.6429L39 12C39 12 31.2963 17 23 22M23 2L23 22M23 2L7 11.6429V12L23 22M23 52.4998L1 38.9998V29.9998L23 43.4998M23 52.4998V43.4998M23 52.4998L45 38.9998V29.9998L23 43.4998M22.9987 67.5L20.5 66V57L22.9987 58.5M22.9987 67.5V58.5M22.9987 67.5L25.4987 66V57L22.9987 58.5" stroke="#8FEBF1" stroke-width="2"/>
</svg>
