<svg width="214" height="67" viewBox="0 0 214 67" fill="none" xmlns="http://www.w3.org/2000/svg">
<path d="M68.75 45H58.875V13H69.1875C72.2917 13 74.9479 13.6406 77.1562 14.9219C79.3646 16.1927 81.0573 18.0208 82.2344 20.4062C83.4115 22.7812 84 25.625 84 28.9375C84 32.2708 83.4063 35.1406 82.2188 37.5469C81.0313 39.9427 79.3021 41.7865 77.0313 43.0781C74.7604 44.3594 72 45 68.75 45ZM62.75 41.5625H68.5C71.1458 41.5625 73.3385 41.0521 75.0781 40.0312C76.8177 39.0104 78.1146 37.5573 78.9687 35.6719C79.8229 33.7865 80.25 31.5417 80.25 28.9375C80.25 26.3542 79.8281 24.1302 78.9844 22.2656C78.1406 20.3906 76.8802 18.9531 75.2031 17.9531C73.526 16.9427 71.4375 16.4375 68.9375 16.4375H62.75V41.5625ZM99.6225 45.5C97.31 45.5 95.3152 44.9896 93.6381 43.9688C91.9715 42.9375 90.685 41.5 89.7787 39.6562C88.8829 37.8021 88.435 35.6458 88.435 33.1875C88.435 30.7292 88.8829 28.5625 89.7787 26.6875C90.685 24.8021 91.9454 23.3333 93.56 22.2812C95.185 21.2187 97.0808 20.6875 99.2475 20.6875C100.498 20.6875 101.732 20.8958 102.951 21.3125C104.169 21.7292 105.279 22.4062 106.279 23.3438C107.279 24.2708 108.076 25.5 108.669 27.0312C109.263 28.5625 109.56 30.4479 109.56 32.6875V34.25H91.06V31.0625H105.81C105.81 29.7083 105.539 28.5 104.998 27.4375C104.466 26.375 103.706 25.5365 102.716 24.9219C101.737 24.3073 100.581 24 99.2475 24C97.7787 24 96.5079 24.3646 95.435 25.0937C94.3725 25.8125 93.5548 26.75 92.9819 27.9062C92.409 29.0625 92.1225 30.3021 92.1225 31.625V33.75C92.1225 35.5625 92.435 37.099 93.06 38.3594C93.6954 39.6094 94.5756 40.5625 95.7006 41.2188C96.8256 41.8646 98.1329 42.1875 99.6225 42.1875C100.591 42.1875 101.466 42.0521 102.248 41.7812C103.039 41.5 103.721 41.0833 104.294 40.5312C104.867 39.9687 105.31 39.2708 105.622 38.4375L109.185 39.4375C108.81 40.6458 108.18 41.7083 107.294 42.625C106.409 43.5312 105.315 44.2396 104.013 44.75C102.711 45.25 101.248 45.5 99.6225 45.5ZM118.417 30.5625V45H114.729V21H118.292V24.75H118.604C119.167 23.5313 120.021 22.5521 121.167 21.8125C122.313 21.0625 123.792 20.6875 125.604 20.6875C127.229 20.6875 128.651 21.0208 129.87 21.6875C131.089 22.3438 132.037 23.3438 132.714 24.6875C133.391 26.0208 133.729 27.7083 133.729 29.75V45H130.042V30C130.042 28.1146 129.552 26.6458 128.573 25.5937C127.594 24.5312 126.25 24 124.542 24C123.365 24 122.313 24.2552 121.386 24.7656C120.469 25.276 119.745 26.0208 119.214 27C118.682 27.9792 118.417 29.1667 118.417 30.5625ZM149.09 45.5C147.09 45.5 145.325 44.9948 143.793 43.9844C142.262 42.9635 141.064 41.526 140.2 39.6719C139.335 37.8073 138.903 35.6042 138.903 33.0625C138.903 30.5417 139.335 28.3542 140.2 26.5C141.064 24.6458 142.267 23.2135 143.809 22.2031C145.351 21.1927 147.132 20.6875 149.153 20.6875C150.715 20.6875 151.95 20.9479 152.856 21.4688C153.772 21.9792 154.47 22.5625 154.95 23.2187C155.439 23.8646 155.819 24.3958 156.09 24.8125H156.403V13H160.09V45H156.528V41.3125H156.09C155.819 41.75 155.434 42.3021 154.934 42.9687C154.434 43.625 153.72 44.2135 152.793 44.7344C151.866 45.2448 150.632 45.5 149.09 45.5ZM149.59 42.1875C151.069 42.1875 152.319 41.8021 153.34 41.0312C154.361 40.25 155.137 39.1719 155.668 37.7969C156.2 36.4115 156.465 34.8125 156.465 33C156.465 31.2083 156.205 29.6406 155.684 28.2969C155.163 26.9427 154.392 25.8906 153.371 25.1406C152.351 24.3802 151.09 24 149.59 24C148.028 24 146.726 24.401 145.684 25.2031C144.653 25.9948 143.877 27.0729 143.356 28.4375C142.845 29.7917 142.59 31.3125 142.59 33C142.59 34.7083 142.851 36.2604 143.371 37.6562C143.903 39.0417 144.684 40.1458 145.715 40.9687C146.757 41.7813 148.048 42.1875 149.59 42.1875ZM166.916 45V21H170.478V24.625H170.728C171.166 23.4375 171.957 22.474 173.103 21.7344C174.249 20.9948 175.541 20.625 176.978 20.625C177.249 20.625 177.588 20.6302 177.994 20.6406C178.4 20.651 178.707 20.6667 178.916 20.6875V24.4375C178.791 24.4062 178.504 24.3594 178.056 24.2969C177.619 24.224 177.155 24.1875 176.666 24.1875C175.499 24.1875 174.457 24.4323 173.541 24.9219C172.635 25.401 171.916 26.0677 171.385 26.9219C170.864 27.7656 170.603 28.7292 170.603 29.8125V45H166.916ZM182.847 45V21H186.534V45H182.847ZM184.722 17C184.003 17 183.383 16.7552 182.863 16.2656C182.352 15.776 182.097 15.1875 182.097 14.5C182.097 13.8125 182.352 13.224 182.863 12.7344C183.383 12.2448 184.003 12 184.722 12C185.441 12 186.055 12.2448 186.566 12.7344C187.086 13.224 187.347 13.8125 187.347 14.5C187.347 15.1875 187.086 15.776 186.566 16.2656C186.055 16.7552 185.441 17 184.722 17ZM196.286 36.25L196.223 31.6875H196.973L207.473 21H212.036L200.848 32.3125H200.536L196.286 36.25ZM192.848 45V13H196.536V45H192.848ZM208.098 45L198.723 33.125L201.348 30.5625L212.786 45H208.098Z" fill="white"/>
<path opacity="0.7" d="M61.0043 63L58.5114 54.8182H59.8324L61.6009 61.0824H61.6861L63.4332 54.8182H64.7756L66.5014 61.0611H66.5866L68.3551 54.8182H69.6761L67.1832 63H65.9474L64.1577 56.7145H64.0298L62.2401 63H61.0043ZM74.2336 63.1705C73.495 63.1705 72.8469 62.9947 72.2894 62.6431C71.7354 62.2915 71.3021 61.7997 70.9896 61.1676C70.6807 60.5355 70.5262 59.7969 70.5262 58.9517C70.5262 58.0994 70.6807 57.3555 70.9896 56.7198C71.3021 56.0842 71.7354 55.5906 72.2894 55.239C72.8469 54.8874 73.495 54.7116 74.2336 54.7116C74.9722 54.7116 75.6186 54.8874 76.1725 55.239C76.7301 55.5906 77.1633 56.0842 77.4722 56.7198C77.7847 57.3555 77.941 58.0994 77.941 58.9517C77.941 59.7969 77.7847 60.5355 77.4722 61.1676C77.1633 61.7997 76.7301 62.2915 76.1725 62.6431C75.6186 62.9947 74.9722 63.1705 74.2336 63.1705ZM74.2336 62.0412C74.7947 62.0412 75.2563 61.8974 75.6186 61.6097C75.9808 61.3221 76.2489 60.9439 76.4229 60.4751C76.5969 60.0064 76.6839 59.4986 76.6839 58.9517C76.6839 58.4048 76.5969 57.8952 76.4229 57.4229C76.2489 56.9506 75.9808 56.5689 75.6186 56.2777C75.2563 55.9865 74.7947 55.8409 74.2336 55.8409C73.6725 55.8409 73.2109 55.9865 72.8487 56.2777C72.4865 56.5689 72.2183 56.9506 72.0443 57.4229C71.8703 57.8952 71.7833 58.4048 71.7833 58.9517C71.7833 59.4986 71.8703 60.0064 72.0443 60.4751C72.2183 60.9439 72.4865 61.3221 72.8487 61.6097C73.2109 61.8974 73.6725 62.0412 74.2336 62.0412ZM83.0338 63.1705C82.2952 63.1705 81.6471 62.9947 81.0896 62.6431C80.5356 62.2915 80.1023 61.7997 79.7898 61.1676C79.4809 60.5355 79.3264 59.7969 79.3264 58.9517C79.3264 58.0994 79.4809 57.3555 79.7898 56.7198C80.1023 56.0842 80.5356 55.5906 81.0896 55.239C81.6471 54.8874 82.2952 54.7116 83.0338 54.7116C83.7724 54.7116 84.4188 54.8874 84.9727 55.239C85.5303 55.5906 85.9635 56.0842 86.2724 56.7198C86.5849 57.3555 86.7412 58.0994 86.7412 58.9517C86.7412 59.7969 86.5849 60.5355 86.2724 61.1676C85.9635 61.7997 85.5303 62.2915 84.9727 62.6431C84.4188 62.9947 83.7724 63.1705 83.0338 63.1705ZM83.0338 62.0412C83.5949 62.0412 84.0565 61.8974 84.4188 61.6097C84.781 61.3221 85.0491 60.9439 85.2231 60.4751C85.3971 60.0064 85.4841 59.4986 85.4841 58.9517C85.4841 58.4048 85.3971 57.8952 85.2231 57.4229C85.0491 56.9506 84.781 56.5689 84.4188 56.2777C84.0565 55.9865 83.5949 55.8409 83.0338 55.8409C82.4727 55.8409 82.0111 55.9865 81.6489 56.2777C81.2866 56.5689 81.0185 56.9506 80.8445 57.4229C80.6705 57.8952 80.5835 58.4048 80.5835 58.9517C80.5835 59.4986 80.6705 60.0064 80.8445 60.4751C81.0185 60.9439 81.2866 61.3221 81.6489 61.6097C82.0111 61.8974 82.4727 62.0412 83.0338 62.0412ZM91.5996 63.1705C90.9178 63.1705 90.3159 62.9982 89.7939 62.6538C89.2719 62.3058 88.8635 61.8157 88.5687 61.1836C88.274 60.5479 88.1266 59.7969 88.1266 58.9304C88.1266 58.071 88.274 57.3253 88.5687 56.6932C88.8635 56.0611 89.2736 55.5728 89.7992 55.2283C90.3248 54.8839 90.932 54.7116 91.6209 54.7116C92.1536 54.7116 92.5744 54.8004 92.8834 54.978C93.1959 55.152 93.4338 55.3509 93.5971 55.5746C93.764 55.7947 93.8937 55.9759 93.986 56.1179H94.0925V52.0909H95.3496V63H94.1351V61.7429H93.986C93.8937 61.892 93.7623 62.0803 93.5918 62.3075C93.4214 62.5312 93.1781 62.7319 92.8621 62.9094C92.546 63.0835 92.1252 63.1705 91.5996 63.1705ZM91.7701 62.0412C92.2743 62.0412 92.7005 61.9098 93.0485 61.647C93.3965 61.3807 93.6611 61.0131 93.8422 60.5444C94.0233 60.0721 94.1138 59.527 94.1138 58.9091C94.1138 58.2983 94.0251 57.7638 93.8475 57.3058C93.6699 56.8441 93.4072 56.4854 93.0591 56.2298C92.7111 55.9705 92.2814 55.8409 91.7701 55.8409C91.2374 55.8409 90.7935 55.9776 90.4384 56.2511C90.0868 56.521 89.8223 56.8885 89.6447 57.3537C89.4707 57.8153 89.3837 58.3338 89.3837 58.9091C89.3837 59.4915 89.4725 60.0206 89.6501 60.4964C89.8312 60.9687 90.0975 61.3452 90.4491 61.6257C90.8042 61.9027 91.2445 62.0412 91.7701 62.0412ZM99.5302 63L97.0373 54.8182H98.3584L100.127 61.0824H100.212L101.959 54.8182H103.302L105.027 61.0611H105.113L106.881 54.8182H108.202L105.709 63H104.473L102.684 56.7145H102.556L100.766 63H99.5302ZM112.76 63.1705C112.021 63.1705 111.373 62.9947 110.815 62.6431C110.261 62.2915 109.828 61.7997 109.516 61.1676C109.207 60.5355 109.052 59.7969 109.052 58.9517C109.052 58.0994 109.207 57.3555 109.516 56.7198C109.828 56.0842 110.261 55.5906 110.815 55.239C111.373 54.8874 112.021 54.7116 112.76 54.7116C113.498 54.7116 114.145 54.8874 114.699 55.239C115.256 55.5906 115.689 56.0842 115.998 56.7198C116.311 57.3555 116.467 58.0994 116.467 58.9517C116.467 59.7969 116.311 60.5355 115.998 61.1676C115.689 61.7997 115.256 62.2915 114.699 62.6431C114.145 62.9947 113.498 63.1705 112.76 63.1705ZM112.76 62.0412C113.321 62.0412 113.782 61.8974 114.145 61.6097C114.507 61.3221 114.775 60.9439 114.949 60.4751C115.123 60.0064 115.21 59.4986 115.21 58.9517C115.21 58.4048 115.123 57.8952 114.949 57.4229C114.775 56.9506 114.507 56.5689 114.145 56.2777C113.782 55.9865 113.321 55.8409 112.76 55.8409C112.199 55.8409 111.737 55.9865 111.375 56.2777C111.012 56.5689 110.744 56.9506 110.57 57.4229C110.396 57.8952 110.309 58.4048 110.309 58.9517C110.309 59.4986 110.396 60.0064 110.57 60.4751C110.744 60.9439 111.012 61.3221 111.375 61.6097C111.737 61.8974 112.199 62.0412 112.76 62.0412ZM118.236 63V54.8182H119.45V56.054H119.536C119.685 55.6491 119.955 55.3207 120.345 55.0685C120.736 54.8164 121.176 54.6903 121.666 54.6903C121.759 54.6903 121.874 54.6921 122.013 54.6957C122.151 54.6992 122.256 54.7045 122.327 54.7116V55.9901C122.284 55.9794 122.187 55.9634 122.034 55.9421C121.885 55.9173 121.727 55.9048 121.56 55.9048C121.162 55.9048 120.807 55.9883 120.494 56.1552C120.185 56.3185 119.94 56.5458 119.759 56.837C119.582 57.1246 119.493 57.4531 119.493 57.8224V63H118.236ZM124.839 60.017L124.818 58.4616H125.073L128.653 54.8182H130.208L126.394 58.6747H126.288L124.839 60.017ZM123.667 63V52.0909H124.924V63H123.667ZM128.866 63L125.67 58.9517L126.565 58.0781L130.464 63H128.866Z" fill="white"/>
<path d="M23 63V52.5M23 2L1 13M23 2V52.5M23 2L45 13M23 2V26.5M1 13V39L23 52.5M1 13L23 26.5M23 52.5V43.5M23 52.5L45 39V30M1 22L23 35.5M23 35.5V43.5M23 35.5V26.5M23 35.5L45 22M1 30L23 43.5M23 43.5L45 30M23 26.5L45 13M45 13V22M45 22V30" stroke="#8FEBF1" stroke-width="2"/>
</svg>
